<?xml version="1.0" encoding="UTF-8"?>
<svg version="1.1" xmlns="http://www.w3.org/2000/svg" width="921" height="271">
<path d="M0 0 C1.10649902 0.30599121 1.10649902 0.30599121 2.23535156 0.61816406 C17.2047019 4.91926974 30.80374691 11.16550242 43 21 C43.84175781 21.67675781 44.68351563 22.35351562 45.55078125 23.05078125 C68.28992092 42.39496383 79.12711677 71.92309873 82 101 C82.14908103 103.88190981 82.18682208 106.75908738 82.203125 109.64453125 C82.20882507 110.45379562 82.21452515 111.26306 82.22039795 112.09684753 C82.22979274 113.80535602 82.23635979 115.51388218 82.24023438 117.22241211 C82.24983132 119.76776203 82.28086164 122.31226449 82.3125 124.85742188 C82.49687608 153.40665632 75.81113286 183.68752489 57 206 C56.19046875 206.98226562 55.3809375 207.96453125 54.546875 208.9765625 C35.55360353 231.27854458 7.64455149 241.4124477 -20.83203125 244.40234375 C-54.56972281 247.07065522 -89.38979308 241.40738694 -116.15234375 219.47265625 C-140.13030347 198.92394236 -151.63860693 169.08388078 -154.24169922 138.12548828 C-156.79595661 103.4669542 -152.98611095 63.89583313 -129.82421875 36.1015625 C-129.22222656 35.40804687 -128.62023437 34.71453125 -128 34 C-127.01966797 32.80503906 -127.01966797 32.80503906 -126.01953125 31.5859375 C-111.81042201 14.86629347 -92.8651234 5.70183891 -72 0 C-71.3503125 -0.17934082 -70.700625 -0.35868164 -70.03125 -0.54345703 C-49.07627829 -5.94859446 -20.84352442 -5.77442825 0 0 Z M-82.78125 64.3828125 C-95.95526502 79.92258373 -98.43000718 100.86847541 -98.375 120.5625 C-98.37478851 121.26321625 -98.37457703 121.9639325 -98.37435913 122.68588257 C-98.30986256 144.15040307 -94.26898795 163.71851233 -79.5 180.125 C-67.9007104 191.21516047 -51.71748719 194.58343022 -36.1875 194.4375 C-35.05111084 194.42992676 -33.91472168 194.42235352 -32.74389648 194.41455078 C-17.21478147 194.11112231 -3.47589474 190.25099092 8.1875 179.5625 C26.24832776 160.35312993 26.87590256 133.74345795 26.17041016 108.80664062 C25.38050291 91.16160653 20.00335809 73.94766364 7.40625 61.11328125 C-16.77001731 39.88055298 -60.60627171 40.73418058 -82.78125 64.3828125 Z " fill="#EC3129" transform="translate(821,15)"/>
<path d="M0 0 C0.97484848 0.00222061 1.94969696 0.00444122 2.9540863 0.00672913 C4.05515213 0.00680466 5.15621796 0.00688019 6.29064941 0.00695801 C8.08749428 0.01469994 8.08749428 0.01469994 9.92063904 0.02259827 C11.14000656 0.02401321 12.35937408 0.02542816 13.61569214 0.02688599 C17.52856349 0.03250485 21.4413786 0.04506055 25.35423279 0.05775452 C27.99941426 0.06276709 30.64459662 0.06733041 33.28977966 0.07142639 C39.79045005 0.08248041 46.2910874 0.09923688 52.79173279 0.12025452 C52.79504293 0.80218148 52.79835308 1.48410845 52.80176353 2.18669987 C52.88326652 18.84071173 52.97544624 35.49462767 53.07925987 52.14851475 C53.12921211 60.20247088 53.17565576 68.25641771 53.21360779 76.31044006 C53.24672663 83.33683958 53.28666479 90.36316301 53.33452284 97.38947815 C53.35959194 101.10393286 53.38142893 104.81833839 53.39507675 108.53285408 C53.41050497 112.69694428 53.44116988 116.86079747 53.47288513 121.02479553 C53.47504532 122.23321609 53.47720551 123.44163666 53.47943115 124.68667603 C53.67454568 144.90043534 57.05018483 164.37695643 70.97923279 179.93275452 C79.88140927 188.29236043 91.71153478 191.51112854 103.60423279 191.43275452 C104.49352478 191.42711487 105.38281677 191.42147522 106.29905701 191.41566467 C116.2795476 191.23067118 123.15693769 188.9044149 131.56517029 183.52259827 C133.79173279 182.12025452 133.79173279 182.12025452 135.95579529 181.18666077 C138.29625903 179.82719991 138.72309562 178.57316009 139.79173279 176.12025452 C140.71513724 174.77712077 141.65377167 173.44437977 142.60423279 172.12025452 C155.35483266 152.96325568 154.26106767 130.6016365 154.29784369 108.53034282 C154.30733772 104.7080034 154.33354823 100.88577587 154.35784912 97.06350708 C154.40121869 89.85340492 154.42994577 82.64332484 154.4531725 75.43313271 C154.48038433 67.21275681 154.52428469 58.99249514 154.56946123 50.77220142 C154.66188342 33.88827739 154.73375643 17.00433276 154.79173279 0.12025452 C162.60626031 0.09498889 170.42077737 0.07742346 178.2353363 0.06532288 C180.8961476 0.06028069 183.55695611 0.05344716 186.21775818 0.04481506 C190.03278795 0.03274443 193.84778122 0.02702522 197.66282654 0.02259827 C199.4596714 0.01485634 199.4596714 0.01485634 201.29281616 0.00695801 C202.9444149 0.00684471 202.9444149 0.00684471 204.62937927 0.00672913 C205.60422775 0.00450851 206.57907623 0.0022879 207.58346558 0 C209.79173279 0.12025452 209.79173279 0.12025452 210.79173279 1.12025452 C210.8897519 4.15427815 210.92164351 7.16555058 210.9119873 10.19998169 C210.91326894 11.64684086 210.91326894 11.64684086 210.91457647 13.12292951 C210.91623421 16.38125223 210.91070512 19.63952437 210.90525818 22.89784241 C210.90497634 25.22308348 210.90513397 27.54832465 210.90570068 29.87356567 C210.90598881 36.20802291 210.90008974 42.5424614 210.89312673 48.87691426 C210.88752621 54.81952567 210.88650491 60.76213631 210.88547485 66.70474999 C210.88328403 78.47842758 210.87662312 90.25209826 210.86717224 102.02577209 C210.85799891 113.46555039 210.85091769 124.90532681 210.84666443 136.34510803 C210.84640171 137.04977627 210.84613898 137.7544445 210.8458683 138.48046631 C210.8445633 142.01543648 210.84329958 145.55040667 210.84205639 149.08537686 C210.83168283 178.43034128 210.81324402 207.77529583 210.79173279 237.12025452 C192.31173279 237.12025452 173.83173279 237.12025452 154.79173279 237.12025452 C154.46173279 230.52025452 154.13173279 223.92025452 153.79173279 217.12025452 C152.73985779 218.11025452 151.68798279 219.10025452 150.60423279 220.12025452 C134.15652194 234.42889576 112.48946465 242.30348229 90.79173279 243.12025452 C90.0969281 243.16021545 89.40212341 243.20017639 88.68626404 243.24134827 C66.91824477 243.93563781 45.98090842 237.04128609 29.54173279 222.74525452 C27.93942338 221.22331985 26.35567877 219.68158521 24.79173279 218.12025452 C24.02087341 217.3609967 23.25001404 216.60173889 22.45579529 215.81947327 C1.63372343 194.10908776 -3.38299454 164.1064089 -3.33766174 135.20960999 C-3.33901971 133.74164792 -3.34080185 132.27368619 -3.3429718 130.8057251 C-3.3474951 126.85394741 -3.34577884 122.90219609 -3.34259272 118.950418 C-3.34004737 114.80692573 -3.34241224 110.6634356 -3.34397888 106.51994324 C-3.34579221 99.57518613 -3.34341413 92.63043969 -3.33863831 85.6856842 C-3.33317583 77.64944322 -3.33497603 69.61322754 -3.34046471 61.57698715 C-3.34499418 54.6689491 -3.34564786 47.76091869 -3.34302604 40.85287964 C-3.3414651 36.72990193 -3.34126496 32.60693615 -3.34456253 28.4839592 C-3.34743953 24.617944 -3.34546878 20.75196171 -3.33966827 16.88595009 C-3.33834067 15.46408582 -3.3387348 14.0422188 -3.34093094 12.62035561 C-3.34364185 10.68793966 -3.33964814 8.7555177 -3.33525085 6.82310486 C-3.33487383 5.73953642 -3.3344968 4.65596798 -3.33410835 3.53956413 C-3.17153933 0.41415706 -3.11540113 0.16965386 0 0 Z " fill="#EC3129" transform="translate(192.20826721191406,16.879745483398438)"/>
<path d="M0 0 C2.47901659 1.91349093 4.77465284 3.91725244 7.0625 6.0546875 C7.89007812 6.79203125 8.71765625 7.529375 9.5703125 8.2890625 C29.06993102 26.53641194 37.97175178 53.68033204 39.24661827 79.83147812 C39.31262792 83.75613301 39.32222603 87.67810331 39.30541992 91.60302734 C39.30649639 93.09128401 39.30844045 94.57954025 39.31117249 96.0677948 C39.31595991 100.05655858 39.30844706 104.045208 39.29821944 108.03395796 C39.28935672 112.22280185 39.29119783 116.41164303 39.2915802 120.60049438 C39.29064849 127.61551808 39.28202379 134.63049806 39.26831055 141.64550781 C39.25250428 149.76135991 39.24731565 157.87716453 39.2480461 165.99303091 C39.24871999 174.6496551 39.24179771 183.30626098 39.2325995 191.96287966 C39.23046612 194.45620448 39.2297581 196.94952637 39.22936058 199.44285202 C39.22836002 203.34504001 39.22228715 207.24718782 39.21219444 211.14936256 C39.20926288 212.58412874 39.20804539 214.01889954 39.20862198 215.45366859 C39.20910926 217.40339203 39.20286391 219.35311377 39.19621277 221.30282593 C39.19453692 222.39594778 39.19286108 223.48906963 39.19113445 224.61531639 C39.0625 227.0546875 39.0625 227.0546875 38.0625 228.0546875 C36.34384591 228.1482794 34.62134256 228.17213361 32.90014648 228.16821289 C31.79908066 228.16813736 30.69801483 228.16806183 29.56358337 228.16798401 C28.3656868 228.16282272 27.16779022 228.15766144 25.93359375 228.15234375 C24.71422623 228.1509288 23.4948587 228.14951385 22.23854065 228.14805603 C18.3256693 228.14243717 14.41285419 228.12988146 10.5 228.1171875 C7.85481853 228.11217493 5.20963617 228.1076116 2.56445312 228.10351562 C-3.93621726 228.09246161 -10.43685461 228.07570514 -16.9375 228.0546875 C-16.94246522 227.03179705 -16.94246522 227.03179705 -16.94753075 225.98824215 C-17.02903374 209.33423028 -17.12121346 192.68031434 -17.22502708 176.02642727 C-17.27497932 167.97247114 -17.32142297 159.91852431 -17.359375 151.86450195 C-17.39249384 144.83810243 -17.432432 137.811779 -17.48029006 130.78546387 C-17.50535915 127.07100916 -17.52719614 123.35660363 -17.54084396 119.64208794 C-17.55627219 115.47799774 -17.58693709 111.31414455 -17.61865234 107.15014648 C-17.62081253 105.94172592 -17.62297272 104.73330536 -17.62519836 103.48826599 C-17.82031289 83.27450668 -21.19595204 63.79798558 -35.125 48.2421875 C-45.53710431 38.48670238 -58.77013738 36.43866258 -72.3828125 36.7421875 C-84.67042261 37.35733694 -94.70109972 42.39022174 -103.125 51.1796875 C-116.05968382 66.60873381 -118.05292562 86.20304603 -118.14282227 105.56079102 C-118.15242024 106.9020059 -118.16243139 108.24321789 -118.17282104 109.58442688 C-118.19966846 113.19946239 -118.2207861 116.8145107 -118.24082303 120.42958951 C-118.26280819 124.21723796 -118.29013511 128.00484791 -118.31687927 131.79246521 C-118.36663781 138.95325293 -118.41163854 146.11406221 -118.45490164 153.27489179 C-118.50441866 161.4321654 -118.55928278 169.58940036 -118.61458123 177.74663651 C-118.7281425 194.51595114 -118.83503703 211.28530131 -118.9375 228.0546875 C-126.75202752 228.07995313 -134.56654458 228.09751855 -142.38110352 228.10961914 C-145.04191481 228.11466133 -147.70272332 228.12149486 -150.36352539 228.13012695 C-154.17855516 228.14219759 -157.99354844 228.14791679 -161.80859375 228.15234375 C-163.60543861 228.16008568 -163.60543861 228.16008568 -165.43858337 228.16798401 C-167.09018211 228.16809731 -167.09018211 228.16809731 -168.77514648 228.16821289 C-170.2374192 228.17154381 -170.2374192 228.17154381 -171.72923279 228.17494202 C-173.9375 228.0546875 -173.9375 228.0546875 -174.9375 227.0546875 C-175.03773615 224.03557336 -175.0718794 221.03925637 -175.06448364 218.01965332 C-175.06604363 217.05986966 -175.06760362 216.10008599 -175.06921089 215.11121798 C-175.07322534 211.86905194 -175.07002953 208.62693207 -175.06689453 205.38476562 C-175.06824838 203.07099886 -175.07002821 200.75723232 -175.07220459 198.44346619 C-175.07678094 192.13993493 -175.07498854 185.83641997 -175.0718255 179.53288841 C-175.06930294 172.95230438 -175.07163915 166.37172178 -175.07321167 159.7911377 C-175.07535091 148.02881443 -175.07203268 136.26649804 -175.06695233 124.50417596 C-175.06248429 113.8287894 -175.06326022 103.15341371 -175.06787109 92.47802734 C-175.07321671 80.09563296 -175.07521777 67.71324551 -175.07225883 55.33085012 C-175.07069558 48.77086215 -175.0705036 42.21088167 -175.07379532 35.65089417 C-175.07667278 29.48520216 -175.07470064 23.31953079 -175.06890106 17.15384102 C-175.06757279 14.88377988 -175.0679687 12.61371701 -175.07016373 10.34365654 C-175.07287262 7.25898771 -175.06949732 4.17438615 -175.06448364 1.08972168 C-175.06671436 0.17894379 -175.06894509 -0.7318341 -175.07124341 -1.67021132 C-175.05164981 -7.83116269 -175.05164981 -7.83116269 -173.9375 -8.9453125 C-172.21884591 -9.0389044 -170.49634256 -9.06275861 -168.77514648 -9.05883789 C-167.67408066 -9.05876236 -166.57301483 -9.05868683 -165.43858337 -9.05860901 C-163.64173851 -9.05086708 -163.64173851 -9.05086708 -161.80859375 -9.04296875 C-160.58922623 -9.0415538 -159.3698587 -9.04013885 -158.11354065 -9.03868103 C-154.2006693 -9.03306217 -150.28785419 -9.02050646 -146.375 -9.0078125 C-143.72981853 -9.00279993 -141.08463617 -8.9982366 -138.43945312 -8.99414062 C-131.93878026 -8.98308661 -125.43814968 -8.96580933 -118.9375 -8.9453125 C-118.6075 -2.3453125 -118.2775 4.2546875 -117.9375 11.0546875 C-115.09125 8.79625 -115.09125 8.79625 -112.1875 6.4921875 C-80.31979746 -18.10470914 -34.33014702 -22.73459204 0 0 Z " fill="#EC3129" transform="translate(606.9375,25.9453125)"/>
<path d="M0 0 C18.48 0 36.96 0 56 0 C56.04532725 18.31674235 56.08209347 36.63343857 56.10362434 54.95022297 C56.1138918 63.45698888 56.12786431 71.96371721 56.15087891 80.47045898 C56.17095277 87.89384161 56.18374926 95.31719699 56.18817699 102.74060601 C56.19076094 106.66314236 56.19673707 110.58560083 56.21146011 114.50811195 C56.35972227 155.61440675 56.35972227 155.61440675 51.875 171.6875 C51.66472168 172.4594873 51.45444336 173.23147461 51.23779297 174.02685547 C47.78495742 185.93730799 42.11995554 196.62338467 34 206 C33.36320312 206.825 32.72640625 207.65 32.0703125 208.5 C14.19669947 230.08323083 -19.38649242 238.2467283 -46 241 C-77.41058184 243.68771386 -77.41058184 243.68771386 -87 243 C-88.6140925 241.3859075 -88.12734318 239.63523592 -88.12939453 237.40429688 C-88.13254669 236.42658325 -88.13569885 235.44886963 -88.13894653 234.44152832 C-88.1369223 233.37801147 -88.13489807 232.31449463 -88.1328125 231.21875 C-88.13376923 230.13493042 -88.13472595 229.05111084 -88.13571167 227.93444824 C-88.13639365 225.6377761 -88.13453811 223.34110205 -88.13037109 221.04443359 C-88.12502312 217.51525572 -88.1303155 213.98620513 -88.13671875 210.45703125 C-88.13605797 208.23177055 -88.13477682 206.00650993 -88.1328125 203.78125 C-88.13483673 202.71773315 -88.13686096 201.65421631 -88.13894653 200.55847168 C-88.13579437 199.58075806 -88.13264221 198.60304443 -88.12939453 197.59570312 C-88.12859894 196.73046021 -88.12780334 195.86521729 -88.12698364 194.97375488 C-88 193 -88 193 -87 192 C-85.52808769 191.8782983 -84.05082407 191.82026948 -82.57421875 191.7890625 C-81.64222656 191.76295898 -80.71023437 191.73685547 -79.75 191.70996094 C-78.739375 191.68192383 -77.72875 191.65388672 -76.6875 191.625 C-55.24174588 190.83046552 -28.72591526 188.89514295 -13.0625 172.1875 C-2.19713846 158.44057055 -0.87104774 142.19697418 -0.79467773 125.33203125 C-0.78508337 123.96140763 -0.77507241 122.59078686 -0.76467896 121.22016907 C-0.73779254 117.520366 -0.71669562 113.82055039 -0.69667697 110.12070465 C-0.67471631 106.24629976 -0.64737723 102.3719328 -0.62062073 98.49755859 C-0.57082947 91.17028221 -0.52584067 83.84298461 -0.48259836 76.51566696 C-0.43310958 68.16978688 -0.37823485 59.8239449 -0.32291877 51.47810173 C-0.20930716 34.31876843 -0.10313415 17.15939996 0 0 Z " fill="#EC3229" transform="translate(104,17)"/>
<path d="M0 0 C0.97484848 0.00222061 1.94969696 0.00444122 2.9540863 0.00672913 C4.05515213 0.00680466 5.15621796 0.00688019 6.29064941 0.00695801 C8.08749428 0.01469994 8.08749428 0.01469994 9.92063904 0.02259827 C11.14000656 0.02401321 12.35937408 0.02542816 13.61569214 0.02688599 C17.52856349 0.03250485 21.4413786 0.04506055 25.35423279 0.05775452 C27.99941426 0.06276709 30.64459662 0.06733041 33.28977966 0.07142639 C39.79045005 0.08248041 46.2910874 0.09923688 52.79173279 0.12025452 C52.79173279 1.44025452 52.79173279 2.76025452 52.79173279 4.12025452 C52.13173279 4.12025452 51.47173279 4.12025452 50.79173279 4.12025452 C50.79173279 3.46025452 50.79173279 2.80025452 50.79173279 2.12025452 C33.63173279 2.12025452 16.47173279 2.12025452 -1.20826721 2.12025452 C-1.53826721 50.63025452 -1.86826721 99.14025452 -2.20826721 149.12025452 C-2.53826721 149.12025452 -2.86826721 149.12025452 -3.20826721 149.12025452 C-3.23159489 129.84072422 -3.24924574 110.56119678 -3.26007938 91.28165531 C-3.26524262 82.3304707 -3.27228585 73.37929484 -3.28370667 64.42811584 C-3.29365266 56.62915063 -3.30012044 48.83019176 -3.30235571 41.03122038 C-3.30366296 36.89913266 -3.30674972 32.76706308 -3.31399727 28.63498116 C-3.32075615 24.75023925 -3.32288445 20.86552305 -3.32137489 16.98077583 C-3.32165128 15.55085613 -3.32365719 14.12093561 -3.32747269 12.69102097 C-3.3324078 10.747074 -3.33066527 8.80311342 -3.32852173 6.85916138 C-3.32944352 5.76868028 -3.33036531 4.67819918 -3.33131504 3.55467319 C-3.17281439 0.41884417 -3.12447291 0.17014788 0 0 Z " fill="#AC4539" transform="translate(192.20826721191406,16.879745483398438)"/>
<path d="M0 0 C0.66 0.33 1.32 0.66 2 1 C2 45.55 2 90.1 2 136 C1.67 136 1.34 136 1 136 C0.86943188 118.85842145 0.73903695 101.7168416 0.60884857 84.57526016 C0.54839677 76.61625354 0.48788815 68.65724736 0.42724609 60.69824219 C0.37439486 53.76173034 0.32164992 46.82521769 0.26903296 39.88870406 C0.24116534 36.21539612 0.21324425 32.54208861 0.18519592 28.86878204 C0.15389786 24.76961896 0.12283707 20.67045411 0.09179688 16.57128906 C0.07777077 14.74141449 0.07777077 14.74141449 0.0634613 12.87457275 C0.05504715 11.75840576 0.046633 10.64223877 0.03796387 9.49224854 C0.03058952 8.52252232 0.02321518 7.5527961 0.01561737 6.55368423 C0.00225763 4.36915747 0 2.18456761 0 0 Z " fill="#E92824" transform="translate(590,116)"/>
<path d="M0 0 C18.15 0 36.3 0 55 0 C55 1.32 55 2.64 55 4 C54.34 4 53.68 4 53 4 C53 3.34 53 2.68 53 2 C35.84 2 18.68 2 1 2 C0.67 2.66 0.34 3.32 0 4 C0 2.68 0 1.36 0 0 Z " fill="#C93A35" transform="translate(190,17)"/>
<path d="M0 0 C0.99 0.33 1.98 0.66 3 1 C2.86287598 1.74338623 2.72575195 2.48677246 2.58447266 3.25268555 C1.01179294 12.46982767 0.57727284 21.49214698 0.375 30.8125 C0.33669318 32.29494159 0.29763481 33.77736397 0.2578125 35.25976562 C0.16324363 38.83966478 0.07872982 42.41971326 0 46 C-0.33 46 -0.66 46 -1 46 C-1.91983592 42.0293204 -2.19088698 38.23837938 -2.31640625 34.16796875 C-2.35830078 32.87568359 -2.40019531 31.58339844 -2.44335938 30.25195312 C-2.48316352 28.89713808 -2.52287591 27.54232033 -2.5625 26.1875 C-2.60573723 24.81313895 -2.64935312 23.43878976 -2.69335938 22.06445312 C-2.7992979 18.70973331 -2.90137189 15.3549414 -3 12 C-2.01 12 -1.02 12 0 12 C0 8.04 0 4.08 0 0 Z " fill="#CC372D" transform="translate(723,106)"/>
<path d="M0 0 C0.94875 0.16242188 1.8975 0.32484375 2.875 0.4921875 C7.58228523 1.16228897 12.25324418 1.14625413 17 1.125 C18.29550781 1.13080078 18.29550781 1.13080078 19.6171875 1.13671875 C24.51843463 1.12927005 29.16818028 0.82718653 34 0 C33.67 0.66 33.34 1.32 33 2 C32.34 2 31.68 2 31 2 C30.67 2.66 30.34 3.32 30 4 C29.34 3.67 28.68 3.34 28 3 C27.67 3.99 27.34 4.98 27 6 C26.34 5.67 25.68 5.34 25 5 C23.4804236 4.84876169 21.95527498 4.75118307 20.4296875 4.68359375 C19.53378906 4.64169922 18.63789063 4.59980469 17.71484375 4.55664062 C16.77769531 4.51732422 15.84054687 4.47800781 14.875 4.4375 C13.93011719 4.39431641 12.98523438 4.35113281 12.01171875 4.30664062 C9.67462908 4.20040928 7.3374317 4.09836824 5 4 C5 3.34 5 2.68 5 2 C3.35 2 1.7 2 0 2 C0 1.34 0 0.68 0 0 Z " fill="#CB382F" transform="translate(279,207)"/>
<path d="M0 0 C0 11.22 0 22.44 0 34 C-0.99 34.495 -0.99 34.495 -2 35 C-2 24.11 -2 13.22 -2 2 C-2.66 1.67 -3.32 1.34 -4 1 C-2 0 -2 0 0 0 Z " fill="#E92A20" transform="translate(245,21)"/>
<path d="M0 0 C0.33 0 0.66 0 1 0 C1.07703737 4.54520483 1.02485148 8.55897693 0 13 C-0.165 14.2375 -0.33 15.475 -0.5 16.75 C-1 20 -1 20 -2 21 C-2.23701239 23.85877909 -2.42219182 26.69883297 -2.5625 29.5625 C-2.60568359 30.36880859 -2.64886719 31.17511719 -2.69335938 32.00585938 C-2.79975262 34.00368805 -2.90040888 36.0018207 -3 38 C-3.99 38.495 -3.99 38.495 -5 39 C-5.6368658 25.64940592 -3.34809053 12.88287007 0 0 Z " fill="#CD3631" transform="translate(672,89)"/>
<path d="M0 0 C1.32 0.33 2.64 0.66 4 1 C-6.05888616 7.67436682 -16.88753701 12.86362102 -29 14 C-28.67 13.34 -28.34 12.68 -28 12 C-26.02 12 -24.04 12 -22 12 C-22 11.34 -22 10.68 -22 10 C-20.02 10 -18.04 10 -16 10 C-16 9.34 -16 8.68 -16 8 C-14.35 8 -12.7 8 -11 8 C-11 7.34 -11 6.68 -11 6 C-9.68 6 -8.36 6 -7 6 C-7 5.01 -7 4.02 -7 3 C-3.535 2.505 -3.535 2.505 0 2 C0 1.34 0 0.68 0 0 Z " fill="#CD3731" transform="translate(329,243)"/>
<path d="M0 0 C17.49 0 34.98 0 53 0 C53 0.33 53 0.66 53 1 C52.40753479 1.01030746 51.81506958 1.02061493 51.20465088 1.03123474 C45.04029494 1.13938458 38.87608265 1.25397579 32.71191406 1.37231445 C30.41116338 1.41563606 28.11038112 1.45731313 25.80957031 1.49731445 C22.50315839 1.55508395 19.196905 1.61875949 15.890625 1.68359375 C14.86132874 1.70030624 13.83203247 1.71701874 12.77154541 1.73423767 C11.81085144 1.75418289 10.85015747 1.77412811 9.86035156 1.79467773 C8.59460297 1.81799416 8.59460297 1.81799416 7.30328369 1.84178162 C3.63605774 2.09369264 1.64312534 2.35687466 -1 5 C-0.67 3.35 -0.34 1.7 0 0 Z " fill="#DB362E" transform="translate(348,18)"/>
<path d="M0 0 C0.66 0 1.32 0 2 0 C2.268125 0.804375 2.53625 1.60875 2.8125 2.4375 C3.204375 3.283125 3.59625 4.12875 4 5 C4.99 5.33 5.98 5.66 7 6 C6.34 6.66 5.68 7.32 5 8 C5.16141654 10.19896211 5.16141654 10.19896211 5.8125 12.5625 C6.00457031 13.36816406 6.19664062 14.17382812 6.39453125 15.00390625 C6.82259087 16.97972846 6.82259087 16.97972846 8 18 C8.04063832 19.66617115 8.042721 21.33388095 8 23 C4.78332881 19.38714057 3.66485767 15.47668238 2.3125 10.9375 C2.08755859 10.21755859 1.86261719 9.49761719 1.63085938 8.75585938 C0.70979132 5.74069131 0 3.16988272 0 0 Z M3 3 C5 4 5 4 5 4 Z " fill="#D9322E" transform="translate(671,175)"/>
<path d="M0 0 C0.103125 0.61875 0.20625 1.2375 0.3125 1.875 C0.87525373 4.36526484 0.87525373 4.36526484 4 6 C2.85793642 7.50287218 1.71125043 9.00223284 0.5625 10.5 C-0.07558594 11.3353125 -0.71367187 12.170625 -1.37109375 13.03125 C-1.90863281 13.6809375 -2.44617188 14.330625 -3 15 C-3.33 15 -3.66 15 -4 15 C-4.125 12.125 -4.125 12.125 -4 9 C-3.34 8.34 -2.68 7.68 -2 7 C-2.99 6.67 -3.98 6.34 -5 6 C-3.86695008 2.60085025 -2.87481525 1.94745549 0 0 Z " fill="#E0332D" transform="translate(501,70)"/>
<path d="M0 0 C0 3.70363786 -1.15699947 5.54501096 -2.875 8.8125 C-4.97503284 12.8147365 -6.66891073 16.67719067 -8 21 C-9.1171875 19.27734375 -9.1171875 19.27734375 -10 17 C-9.3203125 14.81640625 -9.3203125 14.81640625 -8.125 12.5625 C-6.4688448 9.19461392 -5.50579021 6.83012588 -6 3 C-4.02 2.01 -2.04 1.02 0 0 Z " fill="#D8312D" transform="translate(735,82)"/>
<path d="M0 0 C0.99 0.33 1.98 0.66 3 1 C2.67 1.66 2.34 2.32 2 3 C1.34 2.67 0.68 2.34 0 2 C0 1.34 0 0.68 0 0 Z M0 2 C2 4 2 4 2 8 C-2.99275057 6.72278474 -5.57611908 4.82669043 -9 1 C-5.19825711 -0.26724763 -3.6488868 0.5249181 0 2 Z " fill="#E6342E" transform="translate(235,241)"/>
<path d="M0 0 C1.875 1.1875 1.875 1.1875 2.875 3.1875 C4.70010997 3.96765621 6.56106676 4.66545406 8.4375 5.3125 C9.44941406 5.66570312 10.46132812 6.01890625 11.50390625 6.3828125 C12.28636719 6.64835938 13.06882812 6.91390625 13.875 7.1875 C10.73832092 8.21576931 9.04315258 8.18136675 5.984375 6.97265625 C5.27539062 6.69873047 4.56640625 6.42480469 3.8359375 6.14257812 C3.10632813 5.84802734 2.37671875 5.55347656 1.625 5.25 C0.87992188 4.95931641 0.13484375 4.66863281 -0.6328125 4.36914062 C-2.46741814 3.65176278 -4.29675065 2.92092561 -6.125 2.1875 C-4.64256815 -0.7773637 -3.04166168 -1.16298829 0 0 Z " fill="#D4332F" transform="translate(244.125,248.8125)"/>
<path d="M0 0 C0.33 0.66 0.66 1.32 1 2 C-0.7089149 5.84505853 -2.79076938 9.42315043 -5 13 C-5.99 12.67 -6.98 12.34 -8 12 C-8.99 12 -9.98 12 -11 12 C-10.37351562 11.38511719 -9.74703125 10.77023438 -9.1015625 10.13671875 C-8.28429687 9.32847656 -7.46703125 8.52023438 -6.625 7.6875 C-5.40683594 6.48673828 -5.40683594 6.48673828 -4.1640625 5.26171875 C-1.87395158 2.99990063 -1.87395158 2.99990063 0 0 Z " fill="#D8312E" transform="translate(835,186)"/>
<path d="M0 0 C0.33 0.99 0.66 1.98 1 3 C0.34 3.66 -0.32 4.32 -1 5 C-2.32 5 -3.64 5 -5 5 C-5 5.66 -5 6.32 -5 7 C-5.66 7 -6.32 7 -7 7 C-7 7.66 -7 8.32 -7 9 C-7.66 9 -8.32 9 -9 9 C-9.66 10.32 -10.32 11.64 -11 13 C-12.32 12.67 -13.64 12.34 -15 12 C-10.20968493 7.61420043 -5.54110713 3.40991208 0 0 Z " fill="#D32F2B" transform="translate(714,30)"/>
<path d="M0 0 C0.33 0 0.66 0 1 0 C1 11 1 11 -1 14 C-2.32 13.67 -3.64 13.34 -5 13 C-3.58192622 8.52761347 -1.88695626 4.28853694 0 0 Z " fill="#D9332E" transform="translate(342,175)"/>
<path d="M0 0 C2.02045442 0.60183749 4.02111039 1.27306096 6 2 C6.33 2.66 6.66 3.32 7 4 C7.66 4 8.32 4 9 4 C9.66666667 8 10.33333333 12 11 16 C8.72695131 13.00180694 6.53566363 9.95509495 4.375 6.875 C3.76398437 6.00617188 3.15296875 5.13734375 2.5234375 4.2421875 C1 2 1 2 0 0 Z " fill="#D33430" transform="translate(573,75)"/>
<path d="M0 0 C1.65 0 3.3 0 5 0 C1.5798883 3.84762566 -2.46774256 6.60634022 -7 9 C-7.66 9 -8.32 9 -9 9 C-8.34 7.68 -7.68 6.36 -7 5 C-6.01 5 -5.02 5 -4 5 C-4.33 4.01 -4.66 3.02 -5 2 C-3.35 2.33 -1.7 2.66 0 3 C0 2.01 0 1.02 0 0 Z " fill="#D8322A" transform="translate(123,232)"/>
<path d="M0 0 C0.33 0.66 0.66 1.32 1 2 C-0.12014104 5.36042312 -1.21490768 6.41746812 -3.8125 8.75 C-4.49957031 9.38421875 -5.18664062 10.0184375 -5.89453125 10.671875 C-8 12 -8 12 -10.26171875 11.703125 C-11.12216797 11.35507813 -11.12216797 11.35507813 -12 11 C-6.25 6 -6.25 6 -4 6 C-3.566875 5.071875 -3.566875 5.071875 -3.125 4.125 C-2 2 -2 2 0 0 Z " fill="#D1352B" transform="translate(334,191)"/>
<path d="M0 0 C0 0.66 0 1.32 0 2 C-4.65781058 3.88830158 -8.66420091 5.14881655 -13.6875 5.5625 C-14.68136719 5.64628906 -15.67523437 5.73007812 -16.69921875 5.81640625 C-17.45847656 5.87699219 -18.21773437 5.93757813 -19 6 C-15.82848903 3.88565935 -13.13567139 2.98044063 -9.5 1.875 C-8.3553125 1.52179687 -7.210625 1.16859375 -6.03125 0.8046875 C-3 0 -3 0 0 0 Z " fill="#D3362F" transform="translate(752,15)"/>
<path d="M0 0 C3.10551666 0 4.35261084 0.5393715 7 2 C7 3.98 7 5.96 7 8 C4.36 6.02 1.72 4.04 -1 2 C-0.67 1.34 -0.34 0.68 0 0 Z " fill="#DF3231" transform="translate(566,67)"/>
<path d="M0 0 C3.19199167 2.41556126 5.74716687 4.68003538 8 8 C7.67 8.66 7.34 9.32 7 10 C5.35 9.67 3.7 9.34 2 9 C1.34 6.03 0.68 3.06 0 0 Z " fill="#D43430" transform="translate(874,47)"/>
<path d="M0 0 C3.74281699 2.38179263 6.97727468 4.74475735 10 8 C9.67 8.66 9.34 9.32 9 10 C7.35 9.67 5.7 9.34 4 9 C4.33 7.68 4.66 6.36 5 5 C3.68 4.67 2.36 4.34 1 4 C0.67 2.68 0.34 1.36 0 0 Z " fill="#D2322E" transform="translate(864,37)"/>
<path d="M0 0 C-1.98 0.33 -3.96 0.66 -6 1 C-5.67 2.65 -5.34 4.3 -5 6 C-6.32 6.33 -7.64 6.66 -9 7 C-8.67 5.68 -8.34 4.36 -8 3 C-9.65 3 -11.3 3 -13 3 C-8.8341563 0.22277086 -4.9360889 -1.89849573 0 0 Z " fill="#D9352C" transform="translate(532,16)"/>
<path d="M0 0 C0.33 1.32 0.66 2.64 1 4 C1.99 4.33 2.98 4.66 4 5 C4 5.99 4 6.98 4 8 C3.401875 7.773125 2.80375 7.54625 2.1875 7.3125 C1.1046875 7.1578125 1.1046875 7.1578125 0 7 C-0.99 7.99 -1.98 8.98 -3 10 C-2.01 6.7 -1.02 3.4 0 0 Z " fill="#D8342C" transform="translate(676,78)"/>
<path d="M0 0 C0 0.66 0 1.32 0 2 C-0.99 2 -1.98 2 -3 2 C-3 2.99 -3 3.98 -3 5 C-6.63 5.33 -10.26 5.66 -14 6 C-11.47732009 4.31821339 -9.18908177 3.09893258 -6.4375 1.875 C-5.65246094 1.52179688 -4.86742187 1.16859375 -4.05859375 0.8046875 C-2 0 -2 0 0 0 Z " fill="#D1322C" transform="translate(821,201)"/>
<path d="M0 0 C3 0 3 0 5.0625 1.875 C5.701875 2.57625 6.34125 3.2775 7 4 C7.66 4.66 8.32 5.32 9 6 C8.34 7.32 7.68 8.64 7 10 C5.83043409 8.52312468 4.66441854 7.04343707 3.5 5.5625 C2.8503125 4.73878906 2.200625 3.91507813 1.53125 3.06640625 C0 1 0 1 0 0 Z " fill="#D2352D" transform="translate(688,215)"/>
<path d="M0 0 C3.33511388 2.9901021 5.21521119 5.89498574 7 10 C7 10.66 7 11.32 7 12 C5.68 11.67 4.36 11.34 3 11 C2.814375 9.948125 2.814375 9.948125 2.625 8.875 C1.96161655 5.82343613 1.02788045 2.94659062 0 0 Z " fill="#D0352F" transform="translate(882,57)"/>
<path d="M0 0 C2.125 0.375 2.125 0.375 4 1 C4 1.66 4 2.32 4 3 C5.98 3 7.96 3 10 3 C10.33 3.66 10.66 4.32 11 5 C6.28596212 4.52060632 2.33420699 4.03165952 -2 2 C-1.34 1.34 -0.68 0.68 0 0 Z " fill="#D33732" transform="translate(738,250)"/>
<path d="M0 0 C0.66 0 1.32 0 2 0 C2 0.66 2 1.32 2 2 C3.65 2 5.3 2 7 2 C5.35 3.65 3.7 5.3 2 7 C0.5393715 4.35261084 0 3.10551666 0 0 Z " fill="#DB322B" transform="translate(506,66)"/>
<path d="M0 0 C0.33 0.99 0.66 1.98 1 3 C-2.21311475 8.73770492 -2.21311475 8.73770492 -6 10 C-4.6302836 6.00499382 -2.74277578 3.19990508 0 0 Z " fill="#D12D2D" transform="translate(692,50)"/>
<path d="M0 0 C1.14926266 0.95421808 2.29430541 1.91352045 3.4375 2.875 C4.07558594 3.40867188 4.71367188 3.94234375 5.37109375 4.4921875 C7 6 7 6 8 8 C6.35 8 4.7 8 3 8 C2.67 6.68 2.34 5.36 2 4 C1.34 4 0.68 4 0 4 C0 2.68 0 1.36 0 0 Z " fill="#CF3730" transform="translate(611,30)"/>
<path d="M0 0 C0.87840996 3.09720845 0.99435406 4.90645403 0 8 C-0.99 8 -1.98 8 -3 8 C-3.66 9.32 -4.32 10.64 -5 12 C-5 8.55639368 -4.20408468 7.25204608 -2.5 4.3125 C-2.0359375 3.50425781 -1.571875 2.69601563 -1.09375 1.86328125 C-0.7328125 1.24839844 -0.371875 0.63351563 0 0 Z " fill="#CC3331" transform="translate(99,176)"/>
<path d="M0 0 C1.27433584 2.54867169 1.27570202 4.17405433 1 7 C-0.5 8.8125 -0.5 8.8125 -2 10 C-2.66 9.67 -3.32 9.34 -4 9 C-2.94124926 5.59687262 -1.99097846 2.98646769 0 0 Z " fill="#D62F2B" transform="translate(685,60)"/>
<path d="M0 0 C-2.27795022 2.27795022 -3.93787293 3.05219877 -7 4 C-9.3125 3.625 -9.3125 3.625 -11 3 C-7.16674383 0.29417212 -4.67461851 -0.32613618 0 0 Z " fill="#CF392C" transform="translate(839,249)"/>
<path d="M0 0 C-0.99 0.33 -1.98 0.66 -3 1 C-3.33 1.66 -3.66 2.32 -4 3 C-4.66 2.67 -5.32 2.34 -6 2 C-6.33 2.99 -6.66 3.98 -7 5 C-7.66 4.67 -8.32 4.34 -9 4 C-9 3.01 -9 2.02 -9 1 C-2.25 -1.125 -2.25 -1.125 0 0 Z " fill="#D6332B" transform="translate(313,208)"/>
<path d="M0 0 C0.99 0.33 1.98 0.66 3 1 C0.42215154 3.64752004 -1.91648098 5.94432065 -5 8 C-5 7.01 -5 6.02 -5 5 C-4.34 5 -3.68 5 -3 5 C-2.67 4.01 -2.34 3.02 -2 2 C-1.34 2 -0.68 2 0 2 C0 1.34 0 0.68 0 0 Z " fill="#D52C27" transform="translate(133,224)"/>
<path d="M0 0 C2.09970981 3.9171057 2.99334562 7.68576696 4 12 C2 11.0625 2 11.0625 0 9 C-0.36475845 5.97465051 -0.22893297 3.03336186 0 0 Z " fill="#C9352B" transform="translate(247,167)"/>
<path d="M0 0 C-0.33 1.98 -0.66 3.96 -1 6 C-1.33 5.34 -1.66 4.68 -2 4 C-3.98 4.33 -5.96 4.66 -8 5 C-3.16129032 0 -3.16129032 0 0 0 Z " fill="#D43129" transform="translate(724,25)"/>
<path d="M0 0 C2.1875 1.25 2.1875 1.25 4 3 C4 3.99 4 4.98 4 6 C0.34683329 4.75023244 -0.78065836 4.32901247 -3 1 C-2.01 0.67 -1.02 0.34 0 0 Z " fill="#D4362F" transform="translate(229,241)"/>
<path d="M0 0 C-1.32 0.33 -2.64 0.66 -4 1 C-4 1.66 -4 2.32 -4 3 C-5.98 3.99 -5.98 3.99 -8 5 C-8 4.34 -8 3.68 -8 3 C-8.99 2.67 -9.98 2.34 -11 2 C-9.54494642 1.47007308 -8.08581873 0.9513211 -6.625 0.4375 C-5.81289062 0.14746094 -5.00078125 -0.14257812 -4.1640625 -0.44140625 C-2 -1 -2 -1 0 0 Z " fill="#D0342E" transform="translate(75,202)"/>
<path d="M0 0 C3.7910119 1.44950455 7.3874638 3.15172566 11 5 C7.96929372 6.28222189 6.96403086 5.98589446 3.8125 4.75 C1 3 1 3 0 0 Z " fill="#C53936" transform="translate(746,199)"/>
<path d="M0 0 C0.33 0 0.66 0 1 0 C1.33 4.29 1.66 8.58 2 13 C1.01 13.495 1.01 13.495 0 14 C-1.39151652 9.20699867 -0.68662689 4.84864218 0 0 Z " fill="#CF332A" transform="translate(245,154)"/>
<path d="M0 0 C3.3 0.33 6.6 0.66 10 1 C6.3558226 3.4294516 4.28758728 3.16179575 0 3 C0 2.01 0 1.02 0 0 Z " fill="#DA332D" transform="translate(818,252)"/>
<path d="M0 0 C0.66 0 1.32 0 2 0 C3.125 5.625 3.125 5.625 2 9 C1.34 9 0.68 9 0 9 C0 6.03 0 3.06 0 0 Z " fill="#DF2924" transform="translate(666,131)"/>
<path d="M0 0 C0.33 0.99 0.66 1.98 1 3 C-0.25 4.5625 -0.25 4.5625 -2 6 C-4.1875 5.6875 -4.1875 5.6875 -6 5 C-4.02 3.35 -2.04 1.7 0 0 Z " fill="#D73330" transform="translate(499,29)"/>
<path d="M0 0 C3.3 1.65 6.6 3.3 10 5 C6.34017193 6.21994269 5.41884698 5.49026663 2 4 C1.34 4 0.68 4 0 4 C0 2.68 0 1.36 0 0 Z " fill="#CE3531" transform="translate(268,201)"/>
<path d="M0 0 C1.14926266 0.95421808 2.29430541 1.91352045 3.4375 2.875 C4.07558594 3.40867188 4.71367188 3.94234375 5.37109375 4.4921875 C7 6 7 6 8 8 C5.6875 7.8125 5.6875 7.8125 3 7 C0 2.96551724 0 2.96551724 0 0 Z " fill="#CC3533" transform="translate(736,189)"/>
<path d="M0 0 C2.15377564 2.62198774 3.40072174 4.64404172 4 8 C2.68 7.67 1.36 7.34 0 7 C0 4.69 0 2.38 0 0 Z " fill="#CE3730" transform="translate(889,69)"/>
<path d="M0 0 C1.32 0.33 2.64 0.66 4 1 C1.36 2.98 -1.28 4.96 -4 7 C-3.67 5.68 -3.34 4.36 -3 3 C-2.34 3 -1.68 3 -1 3 C-0.67 2.01 -0.34 1.02 0 0 Z " fill="#CF342A" transform="translate(744,71)"/>
<path d="M0 0 C4.40114397 0.50298788 6.71195019 2.08772731 10 5 C6.44219804 4.39009109 3.3171411 3.4216319 0 2 C0 1.34 0 0.68 0 0 Z " fill="#D22F2A" transform="translate(841,23)"/>
<path d="M0 0 C1.125 1.6875 1.125 1.6875 2 4 C1.125 6.75 1.125 6.75 0 9 C-2 6 -2 6 -1.6875 3.9375 C-1 2 -1 2 0 0 Z " fill="#DA3430" transform="translate(195,187)"/>
</svg>
